<svg width="28" height="24" viewBox="0 0 28 24" fill="none" xmlns="http://www.w3.org/2000/svg">
<path d="M2.39176 23.8836C2.70758 24.0508 1.18672 23.9887 24.7187 23.9887C26.528 23.9887 28 22.7277 28 21.1776V19.0692C28 18.681 27.6327 18.3664 27.1797 18.3664H25.2656V2.93831C25.2656 1.31812 23.7271 0 21.836 0H0.820312C0.367281 0 0 0.314672 0 0.702797V21.1776C0 21.9285 0.341305 22.6344 0.960969 23.1653C1.36128 23.5083 1.85128 23.7534 2.39176 23.8836V23.8836ZM26.3594 21.1776C26.3594 21.9526 25.6234 22.5832 24.7187 22.5832H6.12216C6.40205 22.1694 6.5625 21.6892 6.5625 21.1776V21.1415V19.772H26.3594V21.1776ZM1.64062 1.40559H21.836C22.8224 1.40559 23.625 2.09316 23.625 2.93836V18.3664H5.74219C5.28916 18.3664 4.92187 18.6811 4.92187 19.0692V21.1416C4.92187 22.4171 3.1553 23.0576 2.12111 22.1715C1.81125 21.906 1.64062 21.553 1.64062 21.1776V1.40559Z" fill="#E5E5E5"/>
<path d="M5.94214 5.66878H19.3237C19.7767 5.66878 20.144 5.35411 20.144 4.96598C20.144 4.57786 19.7767 4.26318 19.3237 4.26318H5.94214C5.48911 4.26318 5.12183 4.57786 5.12183 4.96598C5.12183 5.35411 5.48911 5.66878 5.94214 5.66878V5.66878Z" fill="#E5E5E5"/>
<path d="M5.94214 8.94905H19.3237C19.7767 8.94905 20.144 8.63438 20.144 8.24625C20.144 7.85813 19.7767 7.54346 19.3237 7.54346H5.94214C5.48911 7.54346 5.12183 7.85813 5.12183 8.24625C5.12183 8.63443 5.48911 8.94905 5.94214 8.94905V8.94905Z" fill="#E5E5E5"/>
<path d="M5.94214 12.2288H19.3237C19.7767 12.2288 20.144 11.9142 20.144 11.526C20.144 11.1379 19.7767 10.8232 19.3237 10.8232H5.94214C5.48911 10.8232 5.12183 11.1379 5.12183 11.526C5.12183 11.9142 5.48911 12.2288 5.94214 12.2288V12.2288Z" fill="#E5E5E5"/>
<path d="M5.94214 15.5081H19.3237C19.7767 15.5081 20.144 15.1935 20.144 14.8053C20.144 14.4172 19.7767 14.1025 19.3237 14.1025H5.94214C5.48911 14.1025 5.12183 14.4172 5.12183 14.8053C5.12183 15.1935 5.48911 15.5081 5.94214 15.5081V15.5081Z" fill="#E5E5E5"/>
</svg>
