<svg width="24" height="24" viewBox="0 0 24 24" fill="none" xmlns="http://www.w3.org/2000/svg">
<path d="M23.7938 9.81863L20.832 6.85673V0.703125C20.832 0.314812 20.5172 0 20.1289 0H3.87097C3.48266 0 3.16784 0.314812 3.16784 0.703125V6.85673C-0.0708436 10.0955 0.000125103 9.92747 0.000125103 10.3158V23.2969C0.000125103 23.6852 0.314938 24 0.70325 24H23.2966C23.6849 24 23.9997 23.6852 23.9997 23.2969C23.9997 23.2026 24.0013 10.3076 23.9968 10.2555C23.9821 10.0836 23.9045 9.92939 23.7938 9.81863V9.81863ZM22.2101 10.2236L20.832 11.1993V8.84545L22.2101 10.2236ZM19.4257 1.40625V12.195L14.5551 15.6435C13.1583 16.6324 11.2663 16.6544 9.84908 15.6958C9.66978 15.5737 4.90016 12.3243 4.57409 12.1021V1.40625H19.4257ZM3.16789 11.1441L1.80069 10.2127L3.16789 8.8455V11.1441ZM22.5935 22.5938H1.40633V11.6456C1.67539 11.8289 7.67427 15.9157 7.96869 16.1163L4.12498 19.9601C3.85039 20.2346 3.85039 20.6798 4.12498 20.9544C4.39958 21.229 4.84475 21.229 5.11934 20.9544L9.15331 16.9204C10.9368 18.0757 13.2941 18.139 15.1741 16.9219L19.2066 20.9544C19.4811 21.229 19.9263 21.2291 20.201 20.9544C20.4755 20.6799 20.4755 20.2347 20.201 19.9601L16.3422 16.1012C16.57 15.9399 22.2974 11.8848 22.5935 11.6752V22.5938Z" fill="#E5E5E5"/>
<path d="M7.15234 4.6875H16.8478C17.2361 4.6875 17.5509 4.37269 17.5509 3.98438C17.5509 3.59606 17.2361 3.28125 16.8478 3.28125H7.15234C6.76403 3.28125 6.44922 3.59606 6.44922 3.98438C6.44922 4.37269 6.76403 4.6875 7.15234 4.6875V4.6875Z" fill="#E5E5E5"/>
<path d="M7.15234 7.96875H16.8478C17.2361 7.96875 17.5509 7.65394 17.5509 7.26562C17.5509 6.87731 17.2361 6.5625 16.8478 6.5625H7.15234C6.76403 6.5625 6.44922 6.87731 6.44922 7.26562C6.44922 7.65394 6.76403 7.96875 7.15234 7.96875V7.96875Z" fill="#E5E5E5"/>
<path d="M7.15234 11.25H16.8478C17.2361 11.25 17.5509 10.9352 17.5509 10.5469C17.5509 10.1586 17.2361 9.84375 16.8478 9.84375H7.15234C6.76403 9.84375 6.44922 10.1586 6.44922 10.5469C6.44922 10.9352 6.76403 11.25 7.15234 11.25V11.25Z" fill="#E5E5E5"/>
</svg>
