<svg width="24" height="22" viewBox="0 0 24 22" fill="none" xmlns="http://www.w3.org/2000/svg">
<path d="M0.249449 5.20752L1.40136 3.58569C1.51381 3.42735 1.73332 3.39018 1.89153 3.50263C2.04982 3.61504 2.087 3.83451 1.97459 3.9928L0.822684 5.61463C0.816918 5.62274 0.811856 5.63113 0.806512 5.63943H7.37281L4.09582 1.00823C4.09207 1.0132 4.08776 1.01765 4.08411 1.02276L2.92882 2.64927C2.81642 2.80757 2.5969 2.84469 2.43865 2.73234C2.28036 2.61988 2.24318 2.40046 2.35559 2.24216L3.51087 0.615648C3.76559 0.257008 4.18109 0.0478516 4.61056 0.0478516H19.4057C19.8395 0.0478516 20.2544 0.260617 20.5071 0.618039L23.7524 5.2086C24.0867 5.68148 24.0821 6.31363 23.741 6.78163L13.0896 21.3975C12.551 22.1366 11.4483 22.1369 10.9095 21.3975L0.259107 6.78294C-0.0827996 6.31387 -0.0866914 5.68073 0.249449 5.20752V5.20752ZM4.77504 0.75093L8.05222 5.38237L11.3294 0.75093H4.77504ZM8.73162 5.63948H15.286L12.0088 1.00804L8.73162 5.63948ZM12.6882 0.75093L15.9654 5.38237L19.2425 0.75093H12.6882ZM23.1782 5.61444L19.9329 1.02393C19.9293 1.01877 19.9249 1.01423 19.9211 1.00921L16.6448 5.63948H23.1945C23.1891 5.63109 23.184 5.6226 23.1782 5.61444V5.61444ZM12.0004 20.8056L13.838 13.2501C13.8839 13.0615 14.074 12.9457 14.2627 12.9916C14.4514 13.0375 14.5671 13.2276 14.5212 13.4163L12.7605 20.6554L23.1728 6.36754C23.1787 6.35938 23.184 6.35094 23.1895 6.34255H16.2417L14.9097 11.819C14.8707 11.9797 14.7268 12.0875 14.5684 12.0875C14.5409 12.0875 14.513 12.0843 14.4851 12.0775C14.2964 12.0316 14.1807 11.8415 14.2265 11.6528L15.5181 6.34255H8.49908L12.0004 20.8056ZM0.827277 6.36885L11.2415 20.6594L7.77556 6.34255H0.809653C0.815466 6.35137 0.821043 6.36027 0.827277 6.36885V6.36885Z" fill="#E5E5E5"/>
</svg>
