<svg width="27" height="24" viewBox="0 0 27 24" fill="none" xmlns="http://www.w3.org/2000/svg">
<path d="M0.804282 5.65337L2.06641 3.87636C2.18962 3.70287 2.43014 3.66214 2.60348 3.78535C2.77693 3.90851 2.81765 4.14898 2.69449 4.32242L1.43237 6.09943C1.42605 6.10832 1.4205 6.11751 1.41465 6.1266H8.60924L5.0187 1.05227C5.01459 1.05771 5.00986 1.06259 5.00586 1.06819L3.74003 2.85034C3.61687 3.02378 3.37635 3.06446 3.20296 2.94135C3.02951 2.81813 2.98879 2.57772 3.11195 2.40427L4.37777 0.622126C4.65686 0.229169 5.11212 0 5.58268 0H21.7935C22.2687 0 22.7234 0.233124 23.0003 0.624746L26.5561 5.65455C26.9223 6.17267 26.9174 6.86532 26.5437 7.3781L14.8731 23.3925C14.2829 24.2023 13.0746 24.2027 12.4843 23.3925L0.814863 7.37954C0.440242 6.86557 0.435978 6.17185 0.804282 5.65337V5.65337ZM5.76291 0.770352L9.35365 5.84495L12.9444 0.770352H5.76291ZM10.0981 6.12666H17.2796L13.6888 1.05206L10.0981 6.12666ZM14.4333 0.770352L18.024 5.84495L21.6147 0.770352H14.4333ZM25.927 6.09923L22.3712 1.06947C22.3671 1.06382 22.3624 1.05884 22.3582 1.05335L18.7684 6.12666H25.9448C25.9389 6.11746 25.9333 6.10817 25.927 6.09923V6.09923ZM13.6796 22.744L15.693 14.4655C15.7433 14.2588 15.9516 14.132 16.1584 14.1822C16.3651 14.2325 16.4919 14.4408 16.4416 14.6476L14.5125 22.5793L25.921 6.92438C25.9275 6.91545 25.9333 6.9062 25.9394 6.89701H18.3267L16.8673 12.8974C16.8245 13.0735 16.6669 13.1917 16.4933 13.1917C16.4632 13.1917 16.4326 13.1881 16.402 13.1807C16.1953 13.1304 16.0685 12.9221 16.1188 12.7153L17.5339 6.89701H9.84327L13.6796 22.744ZM1.4374 6.92582L12.8481 22.5837L9.05052 6.89701H1.41809C1.42446 6.90666 1.43057 6.91642 1.4374 6.92582V6.92582Z" fill="#E5E5E5"/>
</svg>
