<svg width="24" height="24" viewBox="0 0 24 24" fill="none" xmlns="http://www.w3.org/2000/svg">
<path d="M6.03255 8.75328C6.06663 8.69239 6.10929 8.63614 6.1593 8.58608C6.28123 8.46416 6.43615 8.38864 6.60734 8.36769C6.71027 8.35508 6.80234 8.29766 6.85901 8.2108C7.06141 7.90044 7.40276 7.71519 7.77218 7.71519C8.14155 7.71519 8.48294 7.90049 8.68535 8.21085C8.74202 8.29766 8.83409 8.35508 8.93702 8.36769C9.10816 8.38864 9.26309 8.46416 9.38505 8.58613C9.43502 8.6361 9.47763 8.69235 9.5118 8.75328C9.63555 8.97444 9.86923 9.11183 10.1216 9.11183H11.4743C11.6684 9.11183 11.8257 8.95447 11.8257 8.76036C11.8257 8.56625 11.6684 8.40889 11.4743 8.40889L10.1252 8.40997C10.0595 8.2926 9.97774 8.18464 9.88207 8.08902C9.68669 7.89364 9.44712 7.76033 9.18213 7.69827C8.84332 7.26603 8.32704 7.01221 7.77218 7.01221C7.21727 7.01221 6.70099 7.26599 6.36223 7.69827C6.09724 7.76033 5.85766 7.89364 5.66229 8.08902C5.56662 8.18469 5.48482 8.29269 5.42276 8.40889C5.22865 8.40889 5.07129 8.56625 5.07129 8.76036C5.07129 8.95447 5.22865 9.11183 5.42276 9.11183C5.67513 9.11183 5.90876 8.97444 6.03255 8.75328V8.75328Z" fill="#E5E5E5"/>
<path d="M18.4918 4.53467H3.61618C3.08336 4.53467 2.6499 4.96812 2.6499 5.50095V8.06211C2.6499 8.25621 2.80726 8.41357 3.00137 8.41357C3.19548 8.41357 3.35284 8.25621 3.35284 8.06211V5.50095C3.35284 5.35573 3.47101 5.23761 3.61623 5.23761H18.4918C18.637 5.23761 18.7551 5.35573 18.7551 5.50095V15.0726C17.9933 14.9683 17.2164 14.9149 16.4399 14.9149C15.5869 14.9149 14.7479 14.9768 13.9317 15.0976C11.1968 13.5783 7.52776 12.7422 3.58084 12.7422C3.50753 12.7422 3.43201 12.7426 3.35284 12.7435V9.70521C3.35284 9.51111 3.19548 9.35375 3.00137 9.35375C2.80726 9.35375 2.6499 9.51111 2.6499 9.70521V20.3838C2.6499 20.9166 3.0834 21.3501 3.61618 21.3501H18.4918C19.0246 21.3501 19.458 20.9166 19.458 20.3838V5.50095C19.458 4.96812 19.0245 4.53467 18.4918 4.53467V4.53467ZM5.04803 20.6472H3.61618C3.47096 20.6472 3.35279 20.529 3.35279 20.3838V13.4464C3.43225 13.4456 3.50771 13.4451 3.58079 13.4451C6.98476 13.4451 10.279 14.117 12.7983 15.3066C11.5399 15.586 10.3507 16.012 9.26846 16.5766C7.28612 17.6109 5.83211 19.0149 5.04803 20.6472ZM18.7551 20.3838C18.7551 20.529 18.6369 20.6472 18.4918 20.6472H5.83928C6.58731 19.2935 7.90047 18.0831 9.59364 17.1998C10.8881 16.5244 12.3462 16.057 13.8965 15.8136C13.9142 15.8121 13.9318 15.8095 13.9491 15.8054C14.7579 15.6813 15.5914 15.6179 16.4398 15.6179C17.2171 15.6179 17.9944 15.6732 18.7551 15.782V20.3838Z" fill="#E5E5E5"/>
<path d="M15.8863 10.6539C16.9727 10.6539 17.8565 9.77005 17.8565 8.68363C17.8565 7.59721 16.9726 6.71338 15.8863 6.71338C14.7998 6.71338 13.916 7.59725 13.916 8.68363C13.916 9.77005 14.7998 10.6539 15.8863 10.6539V10.6539ZM15.8863 7.41632C16.5851 7.41632 17.1536 7.98486 17.1536 8.68368C17.1536 9.38254 16.5851 9.95104 15.8863 9.95104C15.1874 9.95104 14.6189 9.38249 14.6189 8.68368C14.6189 7.98482 15.1874 7.41632 15.8863 7.41632Z" fill="#E5E5E5"/>
<path d="M21.9054 0H3.97252C2.88661 0 1.99214 0.833625 1.89445 1.89445C0.833625 1.99214 0 2.88661 0 3.97252V21.9127C0 23.0636 0.936375 24 2.08734 24H20.0203C21.1062 24 22.0006 23.1664 22.0983 22.1055C23.1592 22.0079 23.9928 21.1134 23.9928 20.0275V2.08734C23.9928 0.936375 23.0564 0 21.9054 0V0ZM23.2898 20.0275C23.2898 20.7222 22.7754 21.2988 22.1076 21.397V19.2946C22.1076 19.1005 21.9502 18.9432 21.7561 18.9432C21.5619 18.9432 21.4046 19.1005 21.4046 19.2946V21.9126C21.4046 22.676 20.7836 23.2971 20.0202 23.2971H2.08734C1.32398 23.2971 0.702937 22.676 0.702937 21.9126V3.97252C0.702937 3.20916 1.32398 2.58811 2.08734 2.58811H20.0203C20.7836 2.58811 21.4047 3.20916 21.4047 3.97252V17.6545C21.4047 17.8486 21.562 18.006 21.7561 18.006C21.9503 18.006 22.1076 17.8486 22.1076 17.6545V3.97252C22.1076 2.82155 21.1713 1.88517 20.0203 1.88517H2.60302C2.70117 1.2173 3.27783 0.702891 3.97252 0.702891H21.9054C22.6688 0.702891 23.2898 1.32394 23.2898 2.0873V20.0275Z" fill="#E5E5E5"/>
</svg>
