<svg width="30" height="30" viewBox="0 0 30 30" fill="none" xmlns="http://www.w3.org/2000/svg">
<path d="M27.9877 7.47064C26.6463 5.17242 24.8269 3.35292 22.5289 2.01172C20.2305 0.670461 17.7214 0 14.9998 0C12.2784 0 9.76851 0.670666 7.47064 2.01172C5.17242 3.35285 3.35306 5.17242 2.01172 7.47064C0.670598 9.76878 0 12.2784 0 14.9993C0 18.2679 0.953599 21.207 2.86128 23.8175C4.76875 26.4282 7.23292 28.2347 10.2536 29.2372C10.6052 29.3024 10.8655 29.2565 11.0347 29.1006C11.204 28.9445 11.2886 28.749 11.2886 28.5149C11.2886 28.4759 11.2852 28.1245 11.2787 27.4603C11.272 26.7961 11.2689 26.2167 11.2689 25.7223L10.8197 25.8001C10.5332 25.8525 10.1719 25.8748 9.73567 25.8685C9.29964 25.8624 8.84699 25.8167 8.37833 25.7317C7.90947 25.6475 7.47337 25.4522 7.0697 25.1462C6.66623 24.8402 6.37981 24.4397 6.2105 23.9453L6.0152 23.4958C5.88502 23.1966 5.68007 22.8642 5.40008 22.4999C5.12009 22.1352 4.83695 21.888 4.55053 21.7578L4.41378 21.6599C4.32266 21.5948 4.23811 21.5164 4.15992 21.4253C4.0818 21.3343 4.02331 21.2432 3.98425 21.1519C3.94512 21.0606 3.97755 20.9857 4.08187 20.9269C4.18619 20.8682 4.37472 20.8396 4.64828 20.8396L5.03875 20.898C5.29918 20.9502 5.62131 21.1061 6.00555 21.3666C6.38959 21.627 6.70529 21.9655 6.95272 22.3819C7.25235 22.9159 7.61333 23.3228 8.03671 23.6028C8.45974 23.8828 8.88626 24.0226 9.31586 24.0226C9.74546 24.0226 10.1165 23.99 10.4291 23.9252C10.7414 23.8601 11.0344 23.7622 11.3079 23.6321C11.4251 22.7593 11.7442 22.0889 12.2648 21.6202C11.5227 21.5422 10.8556 21.4248 10.263 21.2686C9.67069 21.1122 9.05864 20.8584 8.42724 20.5066C7.7955 20.1551 7.27143 19.7188 6.8549 19.1982C6.4383 18.6773 6.0964 17.9935 5.82968 17.1474C5.56282 16.3009 5.42936 15.3245 5.42936 14.2178C5.42936 12.642 5.94378 11.3011 6.97242 10.1943C6.49056 9.0096 6.53605 7.68154 7.10903 6.21023C7.48664 6.09291 8.04663 6.18095 8.78871 6.4738C9.53093 6.76679 10.0744 7.01778 10.4195 7.22587C10.7647 7.4339 11.0413 7.61019 11.2497 7.75316C12.4608 7.41475 13.7107 7.24551 14.9996 7.24551C16.2886 7.24551 17.5387 7.41475 18.7499 7.75316L19.4921 7.28464C19.9996 6.97201 20.5989 6.68552 21.2886 6.4251C21.9787 6.16481 22.5064 6.09312 22.8711 6.21043C23.4568 7.68181 23.509 9.0098 23.027 10.1945C24.0556 11.3013 24.5702 12.6426 24.5702 14.218C24.5702 15.3247 24.4363 16.3042 24.1698 17.1572C23.9031 18.0103 23.5582 18.6934 23.1352 19.208C22.7117 19.7225 22.1842 20.1554 21.5528 20.5068C20.9213 20.8584 20.3091 21.1122 19.7168 21.2685C19.1242 21.4249 18.4571 21.5424 17.715 21.6206C18.3918 22.2063 18.7303 23.1308 18.7303 24.3937V28.5144C18.7303 28.7485 18.8117 28.9439 18.9746 29.1001C19.1374 29.256 19.3944 29.3019 19.746 29.2366C22.7671 28.2342 25.2312 26.4276 27.1387 23.8169C29.0459 21.2064 29.9998 18.2673 29.9998 14.9988C29.9991 12.2782 29.3282 9.76878 27.9877 7.47064Z" fill="#E5E5E5"/>
</svg>
