<svg width="28" height="25" viewBox="0 0 28 25" fill="none" xmlns="http://www.w3.org/2000/svg">
<path d="M6.42078 19.8727C2.78308 16.6576 0.0792588 12.5561 0.00101343 7.70319C-0.0672073 3.47203 3.31761 0.138134 7.51057 0.348283C10.0566 0.476019 12.3424 1.95677 13.507 4.22341C14.6715 1.95677 16.9573 0.476019 19.5034 0.348283C21.2649 0.260013 22.978 0.808997 24.3286 1.89457C24.4989 2.03148 24.5261 2.28052 24.3891 2.45088C24.2521 2.62125 24.0031 2.64827 23.8328 2.5114C22.6335 1.54755 21.1102 1.06062 19.543 1.13865C17.2409 1.25415 15.1779 2.61418 14.1592 4.68797C14.0361 4.93838 13.7862 5.09387 13.5069 5.09387C13.5069 5.09387 13.5069 5.09387 13.5069 5.09387C13.2276 5.09387 12.9777 4.93833 12.8547 4.68797C11.8359 2.61418 9.77293 1.2542 7.47084 1.13865C3.72682 0.951928 0.731603 3.92668 0.792279 7.69042C0.866883 12.3178 3.48723 16.2238 6.94481 19.2798C7.10858 19.4244 7.12398 19.6745 6.97926 19.8383C6.83438 20.0022 6.58428 20.0173 6.42078 19.8727V19.8727Z" fill="#E5E5E5"/>
<path d="M12.6243 24.1232C11.7008 23.6431 9.85542 22.6085 7.87269 21.0731C7.6999 20.9393 7.66829 20.6908 7.80209 20.518C7.9359 20.3453 8.18446 20.3136 8.35725 20.4474C10.291 21.9448 12.0894 22.9532 12.9894 23.421C13.3134 23.5895 13.7003 23.5895 14.0243 23.421C20.1247 20.2496 26.1099 14.6093 26.2215 7.69042C26.2445 6.26011 25.8291 4.90445 25.02 3.77003C24.8931 3.59212 24.9345 3.34498 25.1124 3.21809C25.2904 3.09125 25.5375 3.13251 25.6644 3.31053C26.5723 4.58361 27.0385 6.10256 27.0127 7.70319C26.8961 14.9385 20.761 20.811 14.3894 24.1232C13.8368 24.4105 13.177 24.4105 12.6243 24.1232V24.1232Z" fill="#E5E5E5"/>
</svg>
