<svg width="24" height="22" viewBox="0 0 24 22" fill="none" xmlns="http://www.w3.org/2000/svg">
<path d="M5.70442 17.6933C2.47257 14.8369 0.070416 11.193 0.000900361 6.88156C-0.059709 3.12247 2.94746 0.16053 6.67262 0.347233C8.93462 0.460717 10.9654 1.77626 12 3.79001C13.0346 1.77626 15.0654 0.460717 17.3274 0.347233C18.8924 0.268811 20.4144 0.756545 21.6143 1.721C21.7656 1.84264 21.7897 2.06389 21.668 2.21525C21.5463 2.36661 21.3251 2.39061 21.1738 2.26901C20.1083 1.4127 18.7549 0.980092 17.3626 1.04942C15.3174 1.15203 13.4845 2.36033 12.5794 4.20275C12.4701 4.42522 12.2481 4.56336 12 4.56336C12 4.56336 12 4.56336 11.9999 4.56336C11.7518 4.56336 11.5298 4.42517 11.4205 4.20275C10.5154 2.36033 8.68257 1.15208 6.63732 1.04942C3.31103 0.883529 0.649978 3.52639 0.703885 6.87022C0.770166 10.9813 3.09817 14.4515 6.16998 17.1665C6.31548 17.2951 6.32917 17.5173 6.20059 17.6628C6.07187 17.8084 5.84968 17.8218 5.70442 17.6933V17.6933Z" fill="#E5E5E5"/>
<path d="M11.216 21.4697C10.3955 21.0431 8.756 20.1239 6.99449 18.7599C6.84097 18.641 6.81289 18.4202 6.93177 18.2667C7.05064 18.1133 7.27147 18.0851 7.42499 18.204C9.143 19.5343 10.7408 20.4302 11.5403 20.8458C11.8282 20.9955 12.1719 20.9955 12.4598 20.8458C17.8795 18.0282 23.197 13.0172 23.2961 6.87025C23.3166 5.59952 22.9475 4.39511 22.2287 3.38725C22.116 3.22919 22.1527 3.00963 22.3108 2.89689C22.4689 2.78421 22.6884 2.82086 22.8012 2.97902C23.6078 4.11007 24.022 5.45955 23.9991 6.8816C23.8955 13.3097 18.4449 18.5269 12.7841 21.4697C12.2932 21.7249 11.707 21.7249 11.216 21.4697V21.4697Z" fill="#E5E5E5"/>
</svg>
