<svg width="26" height="24" viewBox="0 0 26 24" fill="none" xmlns="http://www.w3.org/2000/svg">
<path d="M25.3324 8.75102L13.834 0.28437C13.319 -0.0947902 12.6272 -0.0947902 12.1123 0.28437L4.72071 5.72711C4.55171 5.85158 4.51558 6.08945 4.64004 6.25851C4.76445 6.42746 5.00237 6.4637 5.17143 6.33918L12.563 0.89644C12.8084 0.71588 13.138 0.715778 13.3833 0.89644L24.8817 9.36309C25.2873 9.66183 25.2874 10.267 24.8817 10.5657C24.6169 10.7607 24.261 10.7607 23.9962 10.5657L13.4254 2.78206C13.1549 2.5829 12.7914 2.58295 12.5208 2.78211L1.95013 10.5657C1.68535 10.7607 1.3294 10.7607 1.06467 10.5657C0.659002 10.267 0.658951 9.66188 1.06467 9.36309L3.71702 7.41008C3.88602 7.28562 3.92216 7.04774 3.79769 6.87868C3.67323 6.70968 3.43531 6.67344 3.2663 6.79801L0.613951 8.75102C-0.204625 9.35377 -0.204676 10.575 0.613951 11.1778C1.14843 11.5714 1.86647 11.5713 2.40085 11.1778L2.88841 10.8189V22.7618C2.88841 23.4446 3.44382 24 4.12658 24H21.8197C22.5024 24 23.0579 23.4446 23.0579 22.7618V10.8188L23.5455 11.1778C24.0796 11.5712 24.7979 11.5714 25.3324 11.1778C26.1509 10.5751 26.151 9.35382 25.3324 8.75102V8.75102ZM22.2978 22.7618C22.2978 23.0254 22.0834 23.2399 21.8197 23.2399H4.12658C3.86296 23.2399 3.6485 23.0254 3.6485 22.7618V10.2594L12.9747 3.39418L22.2978 10.2591V22.7618H22.2978Z" fill="#E5E5E5"/>
<path d="M7.57642 12.6259V18.7481C7.57642 19.5665 8.2422 20.2323 9.06063 20.2323H16.8858C17.7042 20.2323 18.37 19.5665 18.37 18.7481V18.5104C18.37 18.3005 18.1999 18.1303 17.99 18.1303C17.78 18.1303 17.6099 18.3004 17.6099 18.5104V18.7481C17.6099 19.1474 17.285 19.4722 16.8858 19.4722H13.3533V16.1846H17.6099V16.7335C17.6099 16.9434 17.78 17.1136 17.99 17.1136C18.1999 17.1136 18.37 16.9435 18.37 16.7335V12.6258C18.37 11.8074 17.7042 11.1416 16.8858 11.1416H9.06058C8.2422 11.1417 7.57642 11.8075 7.57642 12.6259V12.6259ZM13.3533 11.9018H16.8858C17.2851 11.9018 17.6099 12.2266 17.6099 12.6259V15.4245H13.3533V11.9018ZM12.5931 19.4722H9.06058C8.6613 19.4722 8.33651 19.1474 8.33651 18.7482V16.1846H12.5931V19.4722ZM12.5931 15.4245H8.33651V12.6259C8.33651 12.2266 8.66135 11.9018 9.06058 11.9018H12.5931V15.4245Z" fill="#E5E5E5"/>
</svg>
