<svg width="24" height="23" viewBox="0 0 24 23" fill="none" xmlns="http://www.w3.org/2000/svg">
<path d="M23.4321 8.09458L12.7963 0.263039C12.3199 -0.0876796 11.68 -0.0876796 11.2037 0.263039L4.3666 5.29751C4.21027 5.41263 4.17685 5.63266 4.29197 5.78904C4.40705 5.94532 4.62713 5.97883 4.7835 5.86366L11.6206 0.829195C11.8476 0.662179 12.1525 0.662086 12.3794 0.829195L23.0152 8.66074C23.3904 8.93707 23.3905 9.4968 23.0152 9.77317C22.7703 9.9535 22.4411 9.9535 22.1962 9.77317L12.4183 2.57337C12.1681 2.38915 11.8319 2.38919 11.5816 2.57341L1.80385 9.77317C1.55893 9.95355 1.22968 9.9535 0.984802 9.77317C0.609568 9.49685 0.609521 8.93711 0.984802 8.66074L3.43819 6.85422C3.59452 6.7391 3.62794 6.51907 3.51282 6.36269C3.39769 6.20636 3.17761 6.17285 3.02129 6.28807L0.567896 8.09458C-0.189275 8.65211 -0.189322 9.78175 0.567896 10.3393C1.06229 10.7034 1.72646 10.7033 2.22075 10.3393L2.67174 10.0074V21.0544C2.67174 21.6859 3.18549 22.1997 3.81704 22.1997H20.1829C20.8145 22.1997 21.3283 21.6859 21.3283 21.0544V10.0072L21.7792 10.3393C22.2734 10.7032 22.9377 10.7034 23.4321 10.3393C24.1893 9.7818 24.1893 8.65216 23.4321 8.09458V8.09458ZM20.6252 21.0543C20.6252 21.2982 20.4268 21.4966 20.183 21.4966H3.81704C3.57319 21.4966 3.37482 21.2982 3.37482 21.0543V9.48977L12.0015 3.13957L20.6251 9.48953V21.0543H20.6252Z" fill="#E5E5E5"/>
<path d="M7.00806 11.6786V17.3416C7.00806 18.0986 7.6239 18.7145 8.38093 18.7145H15.6191C16.3762 18.7145 16.992 18.0986 16.992 17.3416V17.1217C16.992 16.9276 16.8346 16.7701 16.6404 16.7701C16.4462 16.7701 16.2889 16.9275 16.2889 17.1217V17.3416C16.2889 17.7109 15.9884 18.0113 15.6191 18.0113H12.3516V14.9703H16.2889V15.4781C16.2889 15.6723 16.4462 15.8297 16.6404 15.8297C16.8346 15.8297 16.992 15.6723 16.992 15.4781V11.6785C16.992 10.9215 16.3762 10.3057 15.6191 10.3057H8.38088C7.6239 10.3058 7.00806 10.9216 7.00806 11.6786V11.6786ZM12.3516 11.0088H15.6191C15.9885 11.0088 16.2889 11.3093 16.2889 11.6786V14.2673H12.3516V11.0088ZM11.6484 18.0114H8.38088C8.01156 18.0114 7.71113 17.7109 7.71113 17.3416V14.9704H11.6484V18.0114ZM11.6484 14.2673H7.71113V11.6786C7.71113 11.3093 8.0116 11.0088 8.38088 11.0088H11.6484V14.2673Z" fill="#E5E5E5"/>
</svg>
