<svg width="49" height="62" viewBox="0 0 49 62" fill="none" xmlns="http://www.w3.org/2000/svg">
<path d="M39.9978 30.5016C39.8917 30.5016 39.7842 30.4745 39.6857 30.4176C39.3868 30.2449 39.2846 29.8626 39.4573 29.5637C41.5902 25.873 43.7414 21.5236 44.9379 18.4831C46.3519 14.8893 47.1307 11.2449 47.1307 8.22138C47.1307 5.0965 46.3007 2.97775 44.8536 2.40838C43.9478 2.052 42.8083 2.30113 41.5352 3.12025C38.7517 4.91063 35.8026 9.12388 33.8383 14.116C32.7886 16.7841 31.5613 20.7795 30.6356 24.5427C30.5576 24.8594 30.478 25.1921 30.3946 25.5496C32.4508 26.1408 34.3755 27.0448 36.1231 28.2415C36.4078 28.4365 36.4806 28.8255 36.2857 29.1103C36.0907 29.395 35.7018 29.4679 35.4168 29.2729C33.6243 28.0455 31.6323 27.1465 29.4961 26.6009C29.1678 26.517 28.9662 26.1869 29.0413 25.8566C29.1767 25.2612 29.3012 24.7339 29.4217 24.2441C30.3598 20.4309 31.6066 16.3745 32.6752 13.6584C34.7615 8.35562 37.8208 4.02313 40.859 2.069C41.9615 1.35975 43.015 1 43.9901 1C44.4532 1 44.8977 1.0825 45.3112 1.24513C47.2906 2.024 48.3807 4.5015 48.3807 8.22138C48.3807 11.3978 47.5711 15.2046 46.1011 18.9408C44.8841 22.034 42.701 26.4491 40.5397 30.1891C40.4237 30.3896 40.2138 30.5016 39.9978 30.5016Z" fill="#FA419C" stroke="#FA419C"/>
<path d="M12.4848 30.2163C12.4459 30.2163 12.407 30.2127 12.3682 30.2053C12.1887 30.1713 12.0333 30.0604 11.9425 29.9021C10.9514 28.1726 9.1455 25.0176 8.56913 24.0107C8.13713 24.0001 7.70575 23.9489 7.28438 23.8586C6.947 23.7861 6.73213 23.4538 6.8045 23.1163C6.877 22.7788 7.20863 22.5642 7.54675 22.6364C7.93763 22.7203 8.34113 22.7686 8.74038 22.7628C8.77575 22.7628 8.81075 22.7613 8.84575 22.7601L8.91088 22.7577C9.14113 22.7467 9.35738 22.8716 9.472 23.0719C9.47213 23.0719 11.4212 26.4777 12.671 28.6591C13.3996 28.1196 14.1713 27.6276 14.9724 27.1922C15.247 27.0431 15.5271 26.8993 15.8046 26.7651C16.1112 26.6168 16.4177 26.4778 16.7157 26.3517C16.7274 26.3468 16.739 26.3423 16.7507 26.3382L18.9548 25.5591C18.9665 25.5549 18.9783 25.5512 18.9904 25.5477C19.8489 25.3008 20.7322 25.1093 21.6234 24.9767C21.6377 24.7703 21.6626 24.5794 21.6982 24.4012C20.7767 20.6796 19.567 16.7508 18.5304 14.1159C16.5661 9.1238 13.6169 4.91043 10.8336 3.12018L10.8219 3.11293C10.1642 2.69155 9.53712 2.42118 8.95712 2.30943C8.87462 2.3028 8.805 2.29968 8.74038 2.29968C7.88175 2.29968 7.05138 2.69293 6.27238 3.46855C3.59413 6.13493 2.25 12.4757 2.25 15.2762C2.25 16.6669 2.58338 18.0244 3.21425 19.2022C3.37725 19.5064 3.26262 19.8852 2.95837 20.0483C2.65375 20.2112 2.27513 20.0967 2.11225 19.7924C1.38463 18.4338 1 16.8722 1 15.2763C1 12.4649 2.32563 5.6338 5.39038 2.5828C6.41213 1.56555 7.53913 1.0498 8.74038 1.0498C8.84963 1.0498 8.96238 1.05518 9.09513 1.06668C9.115 1.06843 9.13475 1.07105 9.15438 1.07468C9.90263 1.21243 10.6907 1.54418 11.4967 2.0608L11.5094 2.06855C14.5479 4.02293 17.6073 8.35543 19.6938 13.6583C20.7624 16.3746 22.009 20.4308 22.9471 24.2442C22.9712 24.3423 22.9712 24.4447 22.9471 24.5428C22.8874 24.7852 22.8585 25.0762 22.8585 25.4326L22.859 25.5172C22.8628 25.8359 22.6262 26.1064 22.3097 26.1449C21.3092 26.2672 20.3146 26.4687 19.3536 26.7439L17.1854 27.5104C16.912 27.6263 16.6306 27.7542 16.3489 27.8906C16.0889 28.0163 15.8265 28.1509 15.5691 28.2907C14.6181 28.8076 13.7117 29.4093 12.8755 30.0792C12.7639 30.1687 12.6258 30.2163 12.4848 30.2163Z" fill="#FA419C" stroke="#FA419C"/>
<path d="M27.1904 52.25C25.4673 52.25 24.0654 50.5677 24.0654 48.5C24.0654 48.1547 24.3453 47.875 24.6904 47.875C25.0357 47.875 25.3154 48.1547 25.3154 48.5C25.3154 49.8784 26.1566 51 27.1904 51C28.2243 51 29.0654 49.8784 29.0654 48.5C29.0654 48.1547 29.3452 47.875 29.6904 47.875C30.0357 47.875 30.3154 48.1547 30.3154 48.5C30.3154 50.5677 28.9136 52.25 27.1904 52.25Z" fill="#FA419C" stroke="#FA419C"/>
<path d="M22.1904 52.25C20.4673 52.25 19.0654 50.5677 19.0654 48.5C19.0654 48.1547 19.3453 47.875 19.6904 47.875C20.0357 47.875 20.3154 48.1547 20.3154 48.5C20.3154 49.8784 21.1566 51 22.1904 51C23.1649 51 23.9683 50.0036 24.0573 48.7349L21.3556 45.7981C21.1876 45.6156 21.1436 45.3511 21.2433 45.1237C21.3429 44.8967 21.5676 44.75 21.8156 44.75H27.4406C27.6862 44.75 27.9089 44.8938 28.0101 45.1175C28.1113 45.3413 28.0721 45.6035 27.9098 45.7878L25.3091 48.7431C25.2042 50.6981 23.8456 52.25 22.1904 52.25ZM23.2398 46L24.6802 47.5656L26.0578 46H23.2398Z" fill="#FA419C" stroke="#FA419C"/>
<path d="M33.9404 42.25C32.2173 42.25 30.8154 40.8481 30.8154 39.125C30.8154 37.4019 32.2173 36 33.9404 36C35.6636 36 37.0654 37.4019 37.0654 39.125C37.0654 40.8481 35.6636 42.25 33.9404 42.25ZM33.9404 37.25C32.9066 37.25 32.0654 38.0911 32.0654 39.125C32.0654 40.1589 32.9066 41 33.9404 41C34.9743 41 35.8154 40.1589 35.8154 39.125C35.8154 38.0911 34.9743 37.25 33.9404 37.25Z" fill="#FA419C" stroke="#FA419C"/>
<path d="M15.1907 42.25C13.4675 42.25 12.0657 40.8481 12.0657 39.125C12.0657 37.4019 13.4675 36 15.1907 36C16.9138 36 18.3157 37.4019 18.3157 39.125C18.3157 40.8481 16.9138 42.25 15.1907 42.25ZM15.1907 37.25C14.1568 37.25 13.3157 38.0911 13.3157 39.125C13.3157 40.1589 14.1568 41 15.1907 41C16.2245 41 17.0657 40.1589 17.0657 39.125C17.0657 38.0911 16.2245 37.25 15.1907 37.25Z" fill="#FA419C" stroke="#FA419C"/>
<path d="M8.93013 24.0073C8.68925 24.0073 8.45975 23.8672 8.35713 23.6323C8.219 23.3162 8.36313 22.9478 8.67913 22.8096C8.74288 22.7812 13.0521 20.8317 14.6009 16.4178C14.7153 16.0922 15.0723 15.9206 15.3975 16.035C15.7233 16.1492 15.8948 16.506 15.7804 16.8316C14.0435 21.7816 9.37788 23.8683 9.18013 23.9547C9.09863 23.9905 9.01375 24.0073 8.93013 24.0073Z" fill="#FA419C" stroke="#FA419C"/>
<path d="M24.6907 61C14.0072 61 5.31567 52.8691 5.31567 42.875C5.31567 42.6076 5.32205 42.3369 5.33442 42.0699C5.35055 41.7251 5.6418 41.4587 5.98792 41.4746C6.3328 41.4907 6.5993 41.7835 6.58317 42.1283C6.57155 42.3759 6.56567 42.6273 6.56567 42.8751C6.56567 52.18 14.6965 59.7501 24.6907 59.7501C27.4013 59.7501 30.0079 59.2066 32.4383 58.1349C32.754 57.9958 33.123 58.1388 33.2624 58.4548C33.4017 58.7705 33.2585 59.1396 32.9427 59.2788C30.3524 60.4209 27.5759 61 24.6907 61ZM37.8963 55.9235C37.7283 55.9235 37.5607 55.8563 37.4375 55.7231C37.203 55.4699 37.2183 55.0745 37.4714 54.8399C40.9178 51.6486 42.8158 47.3994 42.8157 42.875C42.8157 38.8916 41.2954 35.0241 38.5348 31.9851C36.1545 29.365 33.029 27.5031 29.4963 26.6009C27.9354 26.2021 26.3185 26 24.6907 26C23.8983 26 23.0973 26.0487 22.31 26.1449C21.3094 26.2671 20.3149 26.4685 19.3539 26.7439L17.1864 27.5101C16.8775 27.6431 15.7989 28.1659 15.5693 28.2906C14.6182 28.8075 13.7119 29.4092 12.8757 30.0791C10.7577 31.776 9.06642 33.9336 7.9848 36.3187C7.84217 36.6331 7.4718 36.7723 7.15742 36.6299C6.84305 36.4873 6.7038 36.1169 6.84642 35.8025C8.00892 33.2391 9.82342 30.9226 12.094 29.1035C12.9879 28.3875 13.9563 27.7444 14.9725 27.1922C15.2459 27.0437 16.3865 26.4911 16.7158 26.3517C16.7274 26.3469 16.7392 26.3424 16.7509 26.3382L18.9548 25.5591C18.9667 25.555 18.9784 25.5513 18.9904 25.5478C20.0203 25.2516 21.0863 25.0351 22.1583 24.9042C22.9958 24.8019 23.8478 24.75 24.6907 24.75C26.4228 24.75 28.1438 24.9652 29.8057 25.3897C33.5763 26.3527 36.9147 28.3429 39.46 31.1449C42.43 34.4141 44.0657 38.5801 44.0657 42.875C44.0658 47.7516 42.0255 52.3265 38.3208 55.7571C38.2005 55.8684 38.0482 55.9235 37.8963 55.9235Z" fill="#FA419C" stroke="#FA419C"/>
</svg>
