<svg width="18" height="24" viewBox="0 0 18 24" fill="none" xmlns="http://www.w3.org/2000/svg">
<path d="M8.35841 20.407C8.54727 20.5543 8.77358 20.6279 8.99994 20.6279C9.2263 20.6279 9.45256 20.5543 9.64147 20.407C13.4096 17.4693 17.0475 12.8647 17.0475 8.04755C17.0475 3.61012 13.4374 0 8.99994 0C4.56252 0 0.952393 3.61012 0.952393 8.04755C0.952393 12.861 4.58905 17.4683 8.35841 20.407V20.407ZM8.99994 0.703125C13.0497 0.703125 16.3444 3.99783 16.3444 8.04755C16.3444 12.6111 12.8159 17.0407 9.20914 19.8525C9.086 19.9485 8.91388 19.9485 8.79074 19.8525C5.18394 17.0407 1.65552 12.613 1.65552 8.04755C1.65552 3.99783 4.95022 0.703125 8.99994 0.703125V0.703125Z" fill="#E5E5E5"/>
<path d="M13.6342 21.355H4.36555C3.63627 21.355 3.04297 21.9483 3.04297 22.6775C3.04297 23.4067 3.63627 24.0001 4.36555 24.0001H13.6342C14.3634 24.0001 14.9567 23.4068 14.9567 22.6775C14.9567 21.9482 14.3634 21.355 13.6342 21.355ZM13.6342 23.297H4.36555C4.02397 23.297 3.74609 23.0191 3.74609 22.6775C3.74609 22.3359 4.02397 22.0581 4.36555 22.0581H13.6342C13.9757 22.0581 14.2536 22.336 14.2536 22.6775C14.2536 23.019 13.9757 23.297 13.6342 23.297Z" fill="#E5E5E5"/>
<path d="M3.94953 7.57271C4.14125 7.60402 4.32185 7.47399 4.35317 7.28241C4.71912 5.04127 6.66654 3.33887 8.99998 3.33887C11.3352 3.33887 13.2811 5.04277 13.6468 7.28241C13.6782 7.47432 13.8591 7.60402 14.0504 7.57271C14.2421 7.54145 14.372 7.36074 14.3407 7.16912C13.9198 4.59165 11.6818 2.63574 8.99998 2.63574C6.31432 2.63574 4.07965 4.59502 3.65918 7.16902C3.62792 7.3607 3.7579 7.5414 3.94953 7.57271V7.57271Z" fill="#E5E5E5"/>
<path d="M8.99988 13.4592C11.6856 13.4592 13.9203 11.4999 14.3407 8.92583C14.3719 8.7342 14.242 8.5535 14.0504 8.52223C13.858 8.49097 13.678 8.6209 13.6467 8.81253C13.2807 11.0538 11.3333 12.7561 8.99993 12.7561C6.66471 12.7561 4.71884 11.0522 4.35312 8.81253C4.32181 8.6209 4.14115 8.49092 3.94948 8.52223C3.75786 8.5535 3.62792 8.7342 3.65918 8.92583C4.08003 11.5033 6.31802 13.4592 8.99988 13.4592V13.4592Z" fill="#E5E5E5"/>
</svg>
