<svg width="24" height="24" viewBox="0 0 24 24" fill="none" xmlns="http://www.w3.org/2000/svg">
<path d="M23.188 2.60639L21.3943 0.812765C20.3108 -0.270797 18.5569 -0.271031 17.4731 0.812718L16.237 2.04877C15.4866 2.79919 4.29693 13.9889 3.84342 14.4424C3.52125 14.7646 3.26639 15.14 3.08587 15.5582L3.08296 15.5649C3.08292 15.565 3.08282 15.5652 3.08278 15.5654C2.77889 16.2694 0.445731 21.6747 0.089622 22.4998C-0.0858779 22.9064 0.0030439 23.3714 0.316169 23.6845C0.630278 23.9987 1.09556 24.0861 1.50093 23.9111L8.43538 20.9179C8.43548 20.9179 8.43557 20.9178 8.43566 20.9178L8.44251 20.9148C8.86082 20.7342 9.2362 20.4794 9.55832 20.1572L11.3342 18.3813C11.4715 18.244 11.4715 18.0214 11.3342 17.8841C11.1969 17.7468 10.9743 17.7468 10.837 17.8841L9.06112 19.66C8.85773 19.8634 8.62752 20.0329 8.37529 20.1669L7.27752 19.0692L18.2121 8.13464L19.3993 9.32184L11.9919 16.7292C11.8546 16.8665 11.8546 17.0891 11.9919 17.2264C12.1292 17.3637 12.3518 17.3637 12.4891 17.2264L23.1879 6.52767C24.2714 5.44406 24.2717 3.69014 23.188 2.60639V2.60639ZM4.34062 14.9396L14.6788 4.60139L15.8661 5.78859L4.93148 16.7232L3.83371 15.6254C3.96764 15.3732 4.13718 15.1431 4.34062 14.9396V14.9396ZM1.22226 23.2656C1.00786 23.3582 0.855137 23.2291 0.813372 23.1874C0.771653 23.1456 0.642653 22.9928 0.735184 22.7785L1.51167 20.9796L3.02118 22.4891L1.22226 23.2656ZM7.68834 20.4745L3.71578 22.1892L1.81148 20.285L3.52621 16.3124L7.68834 20.4745ZM6.78027 18.572L5.42868 17.2204L16.3633 6.28584L17.7149 7.63744L6.78027 18.572ZM22.6907 6.03042L21.7033 7.01784L19.004 4.31855C18.8667 4.1813 18.6441 4.1813 18.5068 4.31855C18.3695 4.45589 18.3695 4.67845 18.5068 4.8158L21.206 7.51509L19.8965 8.82464L18.4611 7.38928C18.461 7.38914 18.4609 7.38895 18.4607 7.38881C18.4606 7.38867 18.4604 7.38853 18.4603 7.38839L16.6123 5.54048C16.6122 5.54034 16.6121 5.54015 16.6119 5.54001C16.6118 5.53987 16.6116 5.53973 16.6115 5.53959L15.1761 4.10423L16.4856 2.79469L17.3367 3.6457C17.4053 3.71433 17.4953 3.74864 17.5853 3.74864C17.6752 3.74864 17.7652 3.71433 17.8339 3.64566C17.9712 3.50836 17.9712 3.28575 17.8339 3.14845L16.9828 2.29748L17.9703 1.31002C18.7789 0.501328 20.0883 0.501094 20.897 1.31006L22.6908 3.10373C23.4995 3.91219 23.4997 5.2215 22.6907 6.03042V6.03042Z" fill="#E5E5E5"/>
</svg>
