<svg width="24" height="24" viewBox="0 0 24 24" fill="none" xmlns="http://www.w3.org/2000/svg">
<path d="M23.4728 5.4635L18.5372 0.527889C17.8334 -0.175939 16.6941 -0.175986 15.9903 0.527889C15.2881 1.23008 15.2881 2.37261 15.9903 3.0748L16.6117 3.69622L10.1647 8.12L9.61657 7.57184C8.25603 6.21129 6.04226 6.21129 4.68176 7.57184C4.08589 8.16772 4.08593 9.13723 4.68176 9.73311L5.21998 10.2713C5.35728 10.4086 5.57989 10.4086 5.71714 10.2713C5.85443 10.134 5.85443 9.91142 5.71714 9.77417L5.17892 9.23595C4.85721 8.91425 4.85721 8.39079 5.17892 8.06904C6.26529 6.98267 8.033 6.98267 9.11937 8.06904L15.9316 14.8813C17.0204 15.9701 17.0207 17.7327 15.9316 18.8217C15.6092 19.1442 15.0872 19.1442 14.7647 18.8217L6.87921 10.9362C6.74192 10.7989 6.51931 10.7989 6.38206 10.9362C6.24476 11.0735 6.24476 11.2961 6.38206 11.4334L8.4177 13.469L2.69984 19.1869C1.358 20.5287 0.954074 21.6995 0.072215 23.1738C-0.050035 23.3927 -0.0130037 23.659 0.164324 23.8363C0.340668 24.0127 0.606824 24.0514 0.826902 23.9285C2.30112 23.0466 3.47178 22.6428 4.81381 21.3008L10.5317 15.583L14.2676 19.3189C14.8647 19.9161 15.8315 19.9162 16.4288 19.3189C17.7925 17.9554 17.7927 15.748 16.4289 14.3841L15.8807 13.8359L18.8192 9.55358C18.929 9.3935 18.8884 9.17464 18.7282 9.06476C18.5681 8.95484 18.3493 8.99562 18.2394 9.1557L15.3749 13.3302L10.6705 8.62573L17.1174 4.2019L19.7988 6.88325L19.1693 7.80059C19.0595 7.96067 19.1002 8.17953 19.2603 8.2894C19.4207 8.39947 19.6394 8.35817 19.7491 8.19847L20.3045 7.38903L20.9259 8.01045C21.277 8.36154 21.7382 8.53709 22.1994 8.53709C22.6605 8.53709 23.1217 8.36154 23.4728 8.01045C24.175 7.30822 24.175 6.16569 23.4728 5.4635V5.4635ZM4.31665 20.8037C3.09045 22.0299 2.00159 22.4206 0.941231 23.0595C1.60925 21.9509 1.98237 20.8987 3.197 19.6841L8.91486 13.9662L10.0345 15.0859L4.31665 20.8037ZM22.9756 7.51325C22.5476 7.94131 21.8511 7.94131 21.4231 7.51325L17.4038 3.4939C17.4035 3.49367 17.4034 3.49348 17.4031 3.49325L16.4875 2.57764C16.0594 2.14958 16.0594 1.45311 16.4875 1.02509C16.9164 0.596092 17.611 0.595998 18.04 1.02509L22.9756 5.9607C23.4036 6.38872 23.4036 7.08519 22.9756 7.51325V7.51325Z" fill="#E5E5E5"/>
</svg>
